<svg xmlns="http://www.w3.org/2000/svg" viewBox="0 0 416.62 145.31"><defs><style>.cls-1{fill:#fff;}.cls-2{fill:#bcbcbc;}</style></defs><g id="图层_2" data-name="图层 2"><g id="图层_1-2" data-name="图层 1"><path class="cls-1" d="M196.89,25.42a12.46,12.46,0,0,1,12.49,12.43V66.39a12.43,12.43,0,0,1-21.3,8.77,12.16,12.16,0,0,1-3.63-8.85V37.85a12.38,12.38,0,0,1,12.44-12.43Zm4.29,12.43a4.42,4.42,0,0,0-4.27-4.56h-.23a4.48,4.48,0,0,0-3.19,1.29,4.32,4.32,0,0,0-1.33,3.27v28.5a4.36,4.36,0,0,0,1.33,3.17,4.43,4.43,0,0,0,3.19,1.31,4.35,4.35,0,0,0,3.19-1.31,4.4,4.4,0,0,0,1.31-3.17Z"/><path class="cls-1" d="M228.72,26a11.93,11.93,0,0,1,9.16,3.65,12.4,12.4,0,0,1,3.17,8.8v7.65A12.07,12.07,0,0,1,237.47,55a11.82,11.82,0,0,1-8.73,3.63H224.2V78.27h-7.85V26Zm4.71,12.6a4.58,4.58,0,0,0-1.23-3.32A4.31,4.31,0,0,0,229,34.08H224.2V50.76H229a4.21,4.21,0,0,0,3.17-1.32,4.36,4.36,0,0,0,1.31-3.19Z"/><path class="cls-1" d="M247.35,78.25V26h22.41v7.87H255.25v14.3h14.51v7.88H255.25V70.37h14.51v7.88Z"/><path class="cls-1" d="M284,26l10.36,35.07V26h7.87V78.25h-8.43L283,44.82V78.25h-7.87V26Z"/><path class="cls-1" d="M195.87,141.81H188V89.66h22.38v7.88H195.87v14.3h14.51v7.88H195.87Z"/><path class="cls-1" d="M228.16,142.47A12.42,12.42,0,0,1,215.73,130V89.66h7.71V130a4.25,4.25,0,0,0,1.45,3.19,4.34,4.34,0,0,0,3.19,1.32,4.46,4.46,0,0,0,4.48-4.43V89.66h8.29v40.42a11.81,11.81,0,0,1-3.67,8.81A12.18,12.18,0,0,1,228.16,142.47Z"/><path class="cls-1" d="M256.49,89.66l10.37,35.05v-35h7.87v52.15h-8.39l-10.82-33.49v33.49h-7.84V89.66Z"/><path class="cls-1" d="M294.15,142.47A12.42,12.42,0,0,1,281.72,130v-28.6A12.43,12.43,0,0,1,294.15,89,11.93,11.93,0,0,1,303,92.67a12,12,0,0,1,3.63,8.81v6h-8.17v-6.14a4.54,4.54,0,0,0-4.54-4.54h0a4.27,4.27,0,0,0-3.17,1.33,4.36,4.36,0,0,0-1.33,3.21v28.64a4.5,4.5,0,0,0,4.48,4.52h0a4.41,4.41,0,0,0,3.21-1.3,4.3,4.3,0,0,0,1.33-3.22v-7.1h8.17v7.25a12.43,12.43,0,0,1-12.44,12.43Z"/><path class="cls-2" d="M320.37,97.5h-8.29V89.66h24.54v7.88h-8.29v44.27h-7.88Z"/><path class="cls-2" d="M350.75,141.81H342.9V89.66h7.85Z"/><path class="cls-2" d="M379,92.65A12,12,0,0,0,370.13,89a12.44,12.44,0,0,0-12.44,12.44h0V130a12.11,12.11,0,0,0,3.61,8.82,11.9,11.9,0,0,0,8.81,3.67A12.42,12.42,0,0,0,382.54,130V101.5A12,12,0,0,0,379,92.65ZM374.42,130a4.33,4.33,0,0,1-1.31,3.18,4.23,4.23,0,0,1-3.19,1.32,4.54,4.54,0,0,1-4.52-4.5v-28.6a4.51,4.51,0,0,1,9-.08V130Z"/><path class="cls-2" d="M398.38,89.66l10.36,35.05v-35h7.88v52.15h-8.44L397.4,108.32v33.49h-7.87V89.66Z"/><path class="cls-1" d="M134.3,57.49a30.7,30.7,0,0,1-28.39-42.38L74.53,0,14.76,28.78,0,93.45l41.36,51.86h66.33l41.36-51.86-8.36-36.63A31.27,31.27,0,0,1,134.3,57.49ZM93.92,104.18,74.53,66l-19.4,38.21H39.93l28.9-56.93H80.22l28.9,56.93Z"/><path class="cls-1" d="M134.3,0a26.79,26.79,0,1,0,26.79,26.79A26.78,26.78,0,0,0,134.3,0Zm-1.59,15c-.38-1-.72-1.42-1.87-1.42-1.86,0-2.68,1.22-2.68,3.76v4.85h4v1.15H128.2V33.65c0,1.94.57,2.24,3.32,2.31v.88c-1.93-.1-3.66-.17-5.19-.17-.71,0-2.14,0-4.31.17V36c2.14,0,2.58-.51,2.58-2.31V23.35h-2.51V22.23h2.51V20.47c0-2.07,0-3.77,1-5.29,1.09-1.67,2.85-2.51,5.4-2.51,3,0,4.71,1.15,4.71,2.51a1.29,1.29,0,0,1-1.39,1.28C133.45,16.46,133,16,132.71,15ZM152,36.84c-1.79-.1-3.15-.13-4.1-.13-1.25,0-2.61,0-4,.13v-.91c1.93,0,2.23-.48,2.23-2.11V26.4q0-3.36-2.74-3.36c-2.21,0-3.94,1.9-3.94,4.68v6c0,1.62.31,2.13,2.28,2.17v.91c-1.8-.1-3.19-.13-4.14-.13-1.22,0-2.58,0-4.07.13v-.91c2.07-.11,2.34-.51,2.34-2.11v-8c0-1.9-.37-2.45-2.17-2.45h-.17v-.88a15.79,15.79,0,0,0,5.29-1.32c.14,1.19.3,2.31.44,3.36a6.46,6.46,0,0,1,5.59-3.09c3.5,0,4.92,1.73,4.92,5.32v7c0,1.63.24,2,2.27,2.11Z"/></g></g></svg>